<svg width="2073" height="394" viewBox="0 0 2073 394" fill="none" xmlns="http://www.w3.org/2000/svg">
<path d="M1607.62 315.604C1607.62 313.099 1604.66 311.777 1602.79 313.451L1578.96 334.867C1577.68 336.017 1577.68 338.023 1578.96 339.173L1602.79 360.59C1604.66 362.264 1607.62 360.942 1607.62 358.437V349.123C1607.62 347.524 1608.92 346.228 1610.52 346.228H1625.43C1627.03 346.228 1628.33 344.932 1628.33 343.334V330.708C1628.33 329.109 1627.03 327.813 1625.43 327.813H1610.52C1608.92 327.813 1607.62 326.517 1607.62 324.919V315.604Z" fill="#848484"/>
<path d="M1664.62 61.9002C1664.62 59.3953 1661.66 58.0729 1659.79 59.7472L1635.96 81.1638C1634.68 82.3138 1634.68 84.3197 1635.96 85.4697L1659.79 106.886C1661.66 108.561 1664.62 107.238 1664.62 104.733V95.4192C1664.62 93.8206 1665.92 92.5247 1667.52 92.5247H1682.43C1684.03 92.5247 1685.33 91.2287 1685.33 89.6301V77.0039C1685.33 75.4053 1684.03 74.1094 1682.43 74.1094H1667.52C1665.92 74.1094 1664.62 72.8135 1664.62 71.2149V61.9002Z" fill="#848484"/>
<path d="M1432.92 244.398C1432.92 240.599 1428.43 238.594 1425.6 241.133L1389.46 273.614C1387.51 275.358 1387.51 278.4 1389.46 280.145L1425.6 312.625C1428.43 315.165 1432.92 313.159 1432.92 309.36V295.234C1432.92 292.809 1434.89 290.844 1437.31 290.844H1459.94C1462.36 290.844 1464.33 288.879 1464.33 286.454V267.305C1464.33 264.88 1462.36 262.915 1459.94 262.915H1437.31C1434.89 262.915 1432.92 260.95 1432.92 258.525V244.398Z" fill="#848484"/>
<path d="M1742.87 187.666C1742.87 182.772 1737.08 180.189 1733.44 183.46L1686.88 225.303C1684.37 227.55 1684.37 231.469 1686.88 233.716L1733.44 275.558C1737.08 278.83 1742.87 276.246 1742.87 271.352V253.154C1742.87 250.031 1745.41 247.499 1748.53 247.499H1777.67C1780.8 247.499 1783.33 244.967 1783.33 241.844V217.175C1783.33 214.052 1780.8 211.52 1777.67 211.52H1748.53C1745.41 211.52 1742.87 208.988 1742.87 205.865V187.666Z" fill="#EF1B1B"/>
<path d="M1488.2 97.9782C1488.2 96.2696 1486.18 95.3677 1484.91 96.5097L1468.65 111.117C1467.78 111.902 1467.78 113.27 1468.65 114.054L1484.91 128.662C1486.18 129.804 1488.2 128.902 1488.2 127.194V120.841C1488.2 119.75 1489.09 118.867 1490.18 118.867H1500.35C1501.44 118.867 1502.33 117.983 1502.33 116.892V108.28C1502.33 107.19 1501.44 106.306 1500.35 106.306H1490.18C1489.09 106.306 1488.2 105.422 1488.2 104.332V97.9782Z" fill="#EF1B1B"/>
<path d="M2011.87 167.218C2011.87 164.439 2008.58 162.971 2006.51 164.829L1980.06 188.591C1978.65 189.867 1978.65 192.093 1980.06 193.369L2006.51 217.131C2008.58 218.989 2011.87 217.522 2011.87 214.743V204.408C2011.87 202.634 2013.3 201.196 2015.08 201.196H2031.63C2033.4 201.196 2034.84 199.759 2034.84 197.985V183.976C2034.84 182.202 2033.4 180.764 2031.63 180.764H2015.08C2013.3 180.764 2011.87 179.326 2011.87 177.553V167.218Z" fill="#848484"/>
<path d="M1911.53 285.402C1911.53 283.327 1909.07 282.232 1907.53 283.619L1887.79 301.353C1886.74 302.305 1886.74 303.966 1887.79 304.918L1907.53 322.652C1909.07 324.039 1911.53 322.944 1911.53 320.869V313.157C1911.53 311.833 1912.6 310.76 1913.93 310.76H1926.28C1927.6 310.76 1928.67 309.687 1928.67 308.363V297.908C1928.67 296.584 1927.6 295.511 1926.28 295.511H1913.93C1912.6 295.511 1911.53 294.438 1911.53 293.114V285.402Z" fill="#848484"/>
<path d="M1896.39 71.0527C1896.39 67.5523 1892.25 65.7045 1889.65 68.0442L1856.34 97.9717C1854.55 99.5788 1854.55 102.382 1856.34 103.989L1889.65 133.916C1892.25 136.256 1896.39 134.408 1896.39 130.908V117.892C1896.39 115.658 1898.2 113.847 1900.44 113.847H1921.28C1923.52 113.847 1925.33 112.036 1925.33 109.802V92.1584C1925.33 89.9245 1923.52 88.1136 1921.28 88.1136H1900.44C1898.2 88.1136 1896.39 86.3026 1896.39 84.0688V71.0527Z" fill="#848484"/>
<path d="M1113.35 312.948C1113.35 310.973 1111.01 309.931 1109.54 311.251L1090.76 328.134C1089.75 329.04 1089.75 330.622 1090.76 331.528L1109.54 348.411C1111.01 349.731 1113.35 348.688 1113.35 346.714V339.371C1113.35 338.111 1114.37 337.09 1115.63 337.09H1127.39C1128.65 337.09 1129.67 336.068 1129.67 334.808V324.854C1129.67 323.594 1128.65 322.573 1127.39 322.573H1115.63C1114.37 322.573 1113.35 321.551 1113.35 320.291V312.948Z" fill="#848484"/>
<path d="M804.351 85.2863C804.351 83.3116 802.013 82.2692 800.544 83.5891L781.757 100.472C780.748 101.378 780.748 102.96 781.757 103.866L800.544 120.749C802.013 122.069 804.351 121.027 804.351 119.052V111.71C804.351 110.449 805.373 109.428 806.633 109.428H818.391C819.652 109.428 820.673 108.406 820.673 107.146V97.1926C820.673 95.9324 819.652 94.9108 818.391 94.9108H806.633C805.373 94.9108 804.351 93.8893 804.351 92.6291V85.2863Z" fill="#848484"/>
<path d="M1326.51 109.476C1326.51 106.474 1322.95 104.889 1320.72 106.896L1292.15 132.568C1290.62 133.946 1290.62 136.351 1292.15 137.729L1320.72 163.401C1322.95 165.408 1326.51 163.823 1326.51 160.821V149.656C1326.51 147.739 1328.06 146.186 1329.98 146.186H1347.86C1349.77 146.186 1351.33 144.632 1351.33 142.716V127.581C1351.33 125.665 1349.77 124.111 1347.86 124.111H1329.98C1328.06 124.111 1326.51 122.558 1326.51 120.642V109.476Z" fill="#848484"/>
<path d="M634.622 315.699C634.622 313.194 631.656 311.871 629.792 313.546L605.96 334.962C604.68 336.112 604.68 338.118 605.96 339.268L629.792 360.685C631.656 362.359 634.622 361.037 634.622 358.532V349.218C634.622 347.619 635.918 346.323 637.516 346.323H652.432C654.031 346.323 655.327 345.027 655.327 343.428V330.802C655.327 329.204 654.031 327.908 652.432 327.908H637.516C635.918 327.908 634.622 326.612 634.622 325.013V315.699Z" fill="#848484"/>
<path d="M407.925 244.398C407.925 240.599 403.427 238.594 400.601 241.133L364.456 273.614C362.515 275.358 362.515 278.4 364.456 280.145L400.601 312.625C403.427 315.165 407.925 313.159 407.925 309.36V295.234C407.925 292.809 409.89 290.844 412.315 290.844H434.937C437.362 290.844 439.327 288.879 439.327 286.454V267.305C439.327 264.88 437.362 262.915 434.937 262.915H412.315C409.89 262.915 407.925 260.95 407.925 258.525V244.398Z" fill="#848484"/>
<path d="M514.874 78.6663C514.874 73.7722 509.079 71.1888 505.439 74.4599L458.875 116.303C456.375 118.55 456.375 122.469 458.875 124.716L505.439 166.558C509.079 169.83 514.874 167.246 514.874 162.352V144.154C514.874 141.031 517.406 138.499 520.529 138.499H549.672C552.795 138.499 555.327 135.967 555.327 132.844V108.175C555.327 105.052 552.795 102.52 549.672 102.52H520.529C517.406 102.52 514.874 99.9882 514.874 96.8649V78.6663Z" fill="#EF1B1B"/>
<path d="M993.393 161.053C993.393 157.552 989.249 155.705 986.645 158.044L953.341 187.972C951.553 189.579 951.553 192.382 953.341 193.989L986.645 223.916C989.249 226.256 993.393 224.408 993.393 220.908V207.892C993.393 205.658 995.204 203.847 997.438 203.847H1018.28C1020.52 203.847 1022.33 202.036 1022.33 199.802V182.158C1022.33 179.924 1020.52 178.114 1018.28 178.114H997.438C995.204 178.114 993.393 176.303 993.393 174.069V161.053Z" fill="#848484"/>
<path d="M1228.39 206.053C1228.39 202.552 1224.25 200.705 1221.65 203.044L1188.34 232.972C1186.55 234.579 1186.55 237.382 1188.34 238.989L1221.65 268.916C1224.25 271.256 1228.39 269.408 1228.39 265.908V252.892C1228.39 250.658 1230.2 248.847 1232.44 248.847H1253.28C1255.52 248.847 1257.33 247.036 1257.33 244.802V227.158C1257.33 224.924 1255.52 223.114 1253.28 223.114H1232.44C1230.2 223.114 1228.39 221.303 1228.39 219.069V206.053Z" fill="#848484"/>
<path d="M876.916 272.475C876.916 267.746 871.317 265.25 867.8 268.411L822.812 308.838C820.396 311.009 820.396 314.795 822.812 316.966L867.8 357.393C871.317 360.554 876.916 358.057 876.916 353.329V335.747C876.916 332.729 879.362 330.283 882.38 330.283H910.536C913.554 330.283 916 327.837 916 324.819V300.985C916 297.968 913.554 295.521 910.536 295.521H882.38C879.362 295.521 876.916 293.075 876.916 290.058V272.475Z" fill="#EF1B1B"/>
<path d="M685.799 180.015C685.799 177.411 682.715 176.036 680.778 177.777L655.998 200.045C654.667 201.24 654.667 203.326 655.998 204.522L680.778 226.789C682.715 228.53 685.799 227.155 685.799 224.551V214.866C685.799 213.204 687.146 211.857 688.808 211.857H704.317C705.98 211.857 707.327 210.509 707.327 208.847V195.719C707.327 194.057 705.98 192.71 704.317 192.71H688.808C687.146 192.71 685.799 191.362 685.799 189.7V180.015Z" fill="#848484"/>
<path d="M248.799 306.015C248.799 303.411 245.715 302.036 243.778 303.777L218.998 326.045C217.667 327.24 217.667 329.326 218.998 330.522L243.778 352.789C245.715 354.53 248.799 353.155 248.799 350.551V340.866C248.799 339.204 250.146 337.857 251.808 337.857H267.317C268.98 337.857 270.327 336.509 270.327 334.847V321.719C270.327 320.057 268.98 318.71 267.317 318.71H251.808C250.146 318.71 248.799 317.362 248.799 315.7V306.015Z" fill="#848484"/>
<path d="M60.7989 145.015C60.7989 142.411 57.715 141.036 55.7778 142.777L30.998 165.045C29.6673 166.24 29.6673 168.326 30.998 169.522L55.7778 191.789C57.715 193.53 60.7989 192.155 60.7989 189.551V179.866C60.7989 178.204 62.1463 176.857 63.8084 176.857H79.3174C80.9796 176.857 82.327 175.509 82.327 173.847V160.719C82.327 159.057 80.9796 157.71 79.3174 157.71H63.8084C62.1463 157.71 60.7989 156.362 60.7989 154.7V145.015Z" fill="#848484"/>
<path d="M180.351 208.286C180.351 206.312 178.013 205.269 176.544 206.589L157.757 223.472C156.748 224.378 156.748 225.96 157.757 226.866L176.544 243.749C178.013 245.069 180.351 244.027 180.351 242.052V234.71C180.351 233.449 181.373 232.428 182.633 232.428H194.391C195.652 232.428 196.673 231.406 196.673 230.146V220.193C196.673 218.932 195.652 217.911 194.391 217.911H182.633C181.373 217.911 180.351 216.889 180.351 215.629V208.286Z" fill="#848484"/>
<path d="M253.508 62.4765C253.508 59.4738 249.952 57.8887 247.719 59.8957L219.151 85.5677C217.616 86.9463 217.616 89.3507 219.151 90.7292L247.719 116.401C249.952 118.408 253.508 116.823 253.508 113.821V102.656C253.508 100.739 255.061 99.1859 256.977 99.1859H274.857C276.774 99.1859 278.327 97.6324 278.327 95.7162V80.5811C278.327 78.6649 276.774 77.1115 274.857 77.1115H256.977C255.061 77.1115 253.508 75.5581 253.508 73.6418V62.4765Z" fill="#848484"/>
<path d="M1057.2 44.9782C1057.2 43.2696 1055.18 42.3677 1053.91 43.5097L1037.65 58.1175C1036.78 58.9019 1036.78 60.2701 1037.65 61.0545L1053.91 75.6623C1055.18 76.8043 1057.2 75.9024 1057.2 74.1938V67.8408C1057.2 66.7505 1058.09 65.8666 1059.18 65.8666H1069.35C1070.44 65.8666 1071.33 64.9826 1071.33 63.8923V55.2802C1071.33 54.1898 1070.44 53.3059 1069.35 53.3059H1059.18C1058.09 53.3059 1057.2 52.4219 1057.2 51.3316V44.9782Z" fill="#848484"/>
</svg>
